<svg xmlns="http://www.w3.org/2000/svg" width="256" height="256" viewBox="0 0 256 256">
<!-- SVG created with Arrow, by QuiverAI (https://quiver.ai) -->
  <path d="m232.4 78.19h-8.51v-22.06c0-12.76-10.2-23.32-22.85-23.32h-93.25l-11.1-17.7c-2.79-4.39-6.85-5.11-9.98-5.11h-62.02c-11.96 0-21.38 10.35-21.38 22.44v131.9c0 12.25 9.52 22.48 21.08 22.48h7.02v22.27c0 12.16 9.8 22.94 22.86 22.94h120.1c4.64 0 5.75-3.78 5.75-5.81 0-3.52-2.5-5.86-5.64-5.86h-119.9c-6.89 0-10.72-5.36-10.72-10.86v-131.4c0-7.17 5.82-11.12 10.82-11.12h60.75l10.92 18.67c2.43 4.14 5.84 4.57 8.84 4.57h96.85c6.99 0 9.87 7.3 9.87 11.05v45.46c0 4.11 2.63 5.94 5.14 5.94 3.54 0 6.25-2.79 6.25-6.04v-45.25c0-13.23-9.85-23.22-20.91-23.22zm-96.87 0-10.38-17.59c-2.95-4.86-6.42-5.51-9.38-5.51h-61.4c-12.58 0-22.96 10.74-22.96 23.1v96.56h-6.72c-6.79 0-10.93-5.92-10.93-10.72v-131.3c0-6.84 5.06-11.74 10.73-11.74h62.22l11.16 17.99c2.3 3.79 5.39 6.1 9.26 6.1h93.69c7.17 0 10.86 6.21 10.86 11.06v22.06h-76.15z" fill="#000"/>
  <path d="m235.8 159.2c-8.1 0-12.89 7.51-12.89 12.88 0 4.06 1.67 6.85 3.74 8.83l-23.39 22.84v-45.04c7.16-1.24 9.71-8.31 9.71-11.81 0-7.7-6.47-12.3-12.01-12.3-8.01 0-11.76 7.36-11.76 12.25 0 6.88 4.77 11.22 9.75 11.96v58.99l-22.48-21.67c2.91-2.59 3.9-6.44 3.9-8.48 0-7.5-5.69-12.3-11.77-12.3-8.6 0-13.27 7.1-13.27 12.56 0 8.07 6.57 12.27 12.82 12.27 2.07 0 3.53-0.46 4.62-0.99l23.01 22.74c-4.87 2.67-6.53 7.42-6.53 11.37 0 7.4 6.33 12.69 11.86 12.69 7.8 0 11.86-6.79 11.86-11.79 0-6.36-4.87-11.66-9.92-12.79v-12.52l28.52-26.06c1.36 0.52 2.68 0.68 3.93 0.68 8.21 0 11.47-7.79 11.47-11.48 0-7.55-5.69-12.83-11.17-12.83zm-67.6 35.84c-5.73 0-8.13-4.74-8.13-7.44 0-5.35 4.38-7.89 8.03-7.89 5.63 0 7.7 4.9 7.7 7.89 0 4.5-3.65 7.44-7.6 7.44zm25.57-48.19c0-5.05 3.7-8.04 7.04-8.04 5.94 0 7.91 4.8 7.91 7.99 0 5.41-4.01 8.1-7.45 8.1-5.43 0-7.5-4.85-7.5-8.05zm15.25 86.66c0 4.96-4.28 7.8-7.72 7.8-5.38 0-7.78-4.75-7.78-7.7 0-5.2 4.05-7.79 7.44-7.79 5.64 0 8.06 4.8 8.06 7.69zm26.58-54.21c-5.53 0-8-4.7-8-7.29 0-5.51 4.33-8.2 7.8-8.2 5.38 0 7.5 4.9 7.5 7.79 0 4.8-4.1 7.7-7.3 7.7z" fill="#000"/>
</svg>