<svg xmlns="http://www.w3.org/2000/svg" width="250" height="250" fill="none" viewBox="0 0 250 250">
<!-- SVG created with Arrow, by QuiverAI (https://quiver.ai) -->
  <path d="m6.71 55.88v128.2l26.48-66.82c1.07-2.02 1.38-3.52 1.57-5.69 1.18-13.7 10.91-25.22 21.97-27.8h139.6v-7.7c0-8.35-6.6-15.03-14.09-15.03h-86.43l-15.67-17.36c-2.17-2.16-4.02-2.72-7.09-2.72h-52.83c-8.32 0-13.5 7.27-13.5 14.88z" fill="url(#paint0_linear_103_42)"/>
  <path d="m71.99 208.6 8.1-29.84 14.43-4.79c3.82 0.75 6.14 2.13 11.02 0.26 4.95-1.9 8.77-6.31 10.65-7.61 6.73-3 5.52-10.23 4.85-14.91 1.85-6.71-0.11-12.14-4.82-14.9l-11.21-7.45c3.3-7.16-0.73-11.43-7.9-18.43l-0.67-4.56-9.3-2.03 1.14-14.52h121.8c7.25 0 10.29 7.16 8.62 12.41l-6.62 29.5c-3.13-5.99-7.36-9.41-12.28-9.41h-36.74c-10.96 0-17.26 13.55-17.26 28.6 0 13.77 6.25 28.58 17.15 28.58h36.35l-4.94 19.32c-1.96 5.9-7.45 9.78-12.06 9.78h-110.3z" fill="url(#paint1_linear_103_42)"/>
  <path d="m200 127.1h-36.74c-7.36 0-12.56 10.51-12.56 23.82 0 12.73 5.3 23.59 12.36 23.59h36.45c5.49 0 9.39-7.23 10.57-13.36h-5.98c-1.13 5.66-3.4 8.74-5.67 8.74-4.45 0-7.62-9.25-7.62-19.12 0-9.86 3.82-18.8 7.62-18.8 3.35 0 6.37 5.1 7.6 8.94h4.05c-1.7-7.71-6.26-13.81-10.08-13.81z" fill="url(#paint2_linear_103_42)"/>
  <path d="m223.9 134.6v9.55h-28.43v13.03h28.23v9.39l19.58-16.44-19.38-15.53z" fill="url(#paint3_linear_103_42)"/>
  <path d="m57.72 88.26c-9 5.66-15.63 14.85-15.63 24.6l0.92 17.05-5.1-6.85-29.23 72.81c-1.97 6.8 3.44 12.31 9.35 12.31h47.08l8.2-31.99-15.7-10.12c-1.48-0.89-1.8-2.1-2.1-3.85l-0.63-6.71c2.43-0.2 2.94 2.18 3.4 4.55 0.41 2.06 0.87 3.36 2.67 4.56l14.83 8.32 18.9-5.44c2.33-0.31 3.51 1.38 6.33 1.72 5.2 0.62 9.17-5.01 9.84-6.16-6.73 0.2-9.69-1.25-13.94-5.74 5 2.8 7.21 3.51 11.03 3.41 5.4-0.1 7.35-0.71 7.87-5.01 0.25-2.1-0.52-7.6-2.32-12.79l-17.46-11.72c3.13-2.17 4.88-7.74 2.92-10.11l-6.83-8.39-0.77-1.6-29.73-2.38-3.9 7.06v-27.53z" fill="#DF5034"/>
  <path d="m66.13 104.6 12.85 1.1 2.43-0.89 0.41-16.13c-6.01 3.69-12.79 11.49-15.69 15.92z" fill="#DF5034"/>
  <path d="m64.69 136.7c3.52-0.51 3.72-3.36 10.25-3.15 4.15 0.1 5.17 3.36 8.47 4.38l-1.23 1.21c-1.96-0.2-3.14 3.17-7.7 3.17-3.52 0-6.42-3.57-9.79-5.61z" fill="#FEFFFE"/>
  <path d="m104.2 146.1c3.82-1.01 6.4 0.81 7.93 5.81-1.28-1.65-4.21-2.95-8.14-4.7l0.21-1.11z" fill="#D44E31"/>
  <defs>
    <linearGradient id="paint0_linear_103_42" x1="101.5" x2="101.5" y1="41" y2="184.1" gradientUnits="userSpaceOnUse">
      <stop stop-color="#006BA6" offset="0"/>
      <stop stop-color="#00619A" offset="1"/>
    </linearGradient>
    <linearGradient id="paint1_linear_103_42" x1="138.1" x2="138.1" y1="89.81" y2="208.6" gradientUnits="userSpaceOnUse">
      <stop stop-color="#0082C9" offset="0"/>
      <stop stop-color="#007DC4" offset="1"/>
    </linearGradient>
    <linearGradient id="paint2_linear_103_42" x1="180.4" x2="180.4" y1="127.1" y2="174.6" gradientUnits="userSpaceOnUse">
      <stop stop-color="#0082C9" offset="0"/>
      <stop stop-color="#0082C9" offset="1"/>
    </linearGradient>
    <linearGradient id="paint3_linear_103_42" x1="219.4" x2="219.4" y1="134.6" y2="166.6" gradientUnits="userSpaceOnUse">
      <stop stop-color="#0082C9" offset="0"/>
      <stop stop-color="#0082C9" offset="1"/>
    </linearGradient>
  </defs>
</svg>